PathFileType	3	(X/Y/Z)	E:\ViconData\BIOM9541 2025\Week 7\Wed1100\Hanif 90 squat 2-5 Squat 01.trc
DataRate	CameraRate	NumFrames	NumMarkers	Units	OrigDataRate	OrigDataStartFrame	OrigNumFrames
200.0	200.0	15	19	mm	200.0	551	1467	
Frame#	Time	C7			CLAV			RBAK			LASI			RASI			LPSI			RPSI			LTHI			LKNE			LTIB			LANK			LHEE			LTOE			RTHI			RKNE			RTIB			RANK			RHEE			RTOE			
		X1	Y1	Z1	X2	Y2	Z2	X3	Y3	Z3	X4	Y4	Z4	X5	Y5	Z5	X6	Y6	Z6	X7	Y7	Z7	X8	Y8	Z8	X9	Y9	Z9	X10	Y10	Z10	X11	Y11	Z11	X12	Y12	Z12	X13	Y13	Z13	X14	Y14	Z14	X15	Y15	Z15	X16	Y16	Z16	X17	Y17	Z17	X18	Y18	Z18	X19	Y19	Z19	
551	2.75	309.47165	1258.5623	-1212.0432	167.11633	1183.8793	-1205.9725	337.75833	1175.9271	-1357.1285	220.23529	816.04108	-1084.368	226.75165	823.79932	-1342.7325	392.06082	881.23657	-1161.35	395.70401	878.10602	-1235.6135	190.08467	540.25934	-948.25543	161.73528	402.63284	-935.42194	243.50497	206.257	-934.19379	300.07693	64.59613	-963.88757	323.03284	51.351566	-1024.2736	161.75555	38.224922	-936.54468	268.53232	694.78992	-1418.2396	184.45828	403.17676	-1475.6437	212.41306	318.77579	-1486.2	297.59671	73.123428	-1448.7689	323.30438	50.423183	-1381.39	162.95058	40.280663	-1476.1364
552	2.755	309.44437	1255.75	-1212.1481	166.80241	1181.3857	-1205.7607	338.16257	1173.7891	-1357.677	221.35269	813.32135	-1084.3871	227.748	821.2406	-1342.8169	393.05453	878.62231	-1161.1865	396.42627	875.91168	-1235.2418	189.51302	539.09827	-947.5885	160.04251	401.73633	-934.42133	242.7679	205.90614	-933.74341	299.94028	64.575249	-963.82172	323.01859	51.413792	-1024.2681	161.77231	38.189007	-936.46649	268.98822	693.1828	-1418.6085	182.56525	402.54062	-1476.7848	210.79428	318.31839	-1487.0834	297.43103	73.262733	-1448.8361	323.20294	50.473316	-1381.2421	163.02644	40.347572	-1476.1324
553	2.76	309.50607	1253.0376	-1212.2078	167.05592	1178.3732	-1205.9191	337.96091	1170.6135	-1357.2521	222.38882	810.50745	-1084.4713	228.69748	818.65967	-1342.8811	394.07443	875.93115	-1161.1312	397.21832	873.13538	-1235.1542	188.89908	537.86145	-946.97009	158.2504	400.96417	-933.37683	241.96021	205.49617	-933.35284	299.85669	64.583282	-963.83154	323	51.413933	-1024.2793	161.83377	38.158272	-936.4444	269.41629	691.22577	-1418.78	180.72585	401.789	-1477.8893	209.20348	317.73553	-1487.9442	297.29068	73.260216	-1448.9037	323.14334	50.509766	-1381.2371	163.10286	40.361801	-1476.1799
554	2.765	309.52371	1250.2455	-1212.2257	167.1582	1175.3947	-1205.8904	338.48407	1168.4729	-1357.8361	223.50473	807.73987	-1084.5304	229.65973	815.97858	-1342.9316	395.12106	873.18488	-1161.5486	398.16562	870.48083	-1235.228	188.24551	536.7843	-946.42645	156.47932	400.19122	-932.40643	241.17755	205.29779	-932.89966	299.80222	64.646309	-963.86578	322.96896	51.424034	-1024.3176	161.80417	38.194008	-936.45825	269.90445	689.5274	-1419.1029	178.83569	401.03052	-1478.9359	207.65669	317.14099	-1488.7754	297.11493	73.221382	-1448.9934	323.07117	50.514301	-1381.2755	163.15469	40.359062	-1476.2141
555	2.77	309.55945	1247.4379	-1212.2632	167.25595	1172.4469	-1206.0018	338.58441	1165.7642	-1357.8484	224.55563	804.91467	-1084.5969	230.61324	813.36285	-1343.0255	396.13754	870.41119	-1161.8771	399.55936	867.48145	-1236.0613	187.66882	535.72479	-945.96619	154.64552	399.53198	-931.39807	240.30807	205.01884	-932.45569	299.76813	64.75544	-963.88824	322.92764	51.44783	-1024.3427	161.80302	38.231758	-936.46301	270.34961	688.01727	-1419.5695	176.93018	400.18835	-1479.9365	206.03848	316.59302	-1489.5973	296.93109	73.132195	-1449.0582	323.03006	50.558125	-1381.3904	163.19334	40.38628	-1476.2673
556	2.775	309.59116	1244.5487	-1212.264	167.36424	1169.4319	-1205.9043	338.73645	1163.0221	-1357.9287	225.62134	802.03986	-1084.6604	231.4541	810.64301	-1343.0927	397.07468	867.57758	-1161.9941	400.53012	864.77576	-1236.2375	187.38928	534.43268	-946.24457	152.78854	398.70688	-930.4953	239.49272	204.731	-932.0896	299.66547	64.817268	-963.8703	322.86768	51.502457	-1024.3405	161.75131	38.278717	-936.45587	270.78467	686.3399	-1419.7472	175.0229	399.47571	-1481.0184	204.40645	316.05362	-1490.4402	296.70511	73.087036	-1449.1437	322.94205	50.568775	-1381.3367	163.19124	40.417828	-1476.274
557	2.78	309.62778	1241.5668	-1212.2332	167.49457	1166.3307	-1205.9862	338.77011	1160.0676	-1357.9658	226.63768	799.03845	-1084.8458	232.32945	807.89636	-1343.1639	398.03906	864.77844	-1162.0579	401.38669	861.85944	-1236.319	186.34953	533.48236	-944.99109	150.87935	397.86771	-929.57062	238.65273	204.42596	-931.62024	299.54169	64.876366	-963.85498	322.82571	51.545921	-1024.3363	161.73572	38.28693	-936.42383	271.28275	684.33362	-1419.7709	173.13843	398.67847	-1481.9818	202.74573	315.5274	-1491.2808	296.49771	73.084732	-1449.1759	322.87537	50.606483	-1381.2745	163.20007	40.472729	-1476.2761
558	2.785	309.78696	1238.5686	-1212.2158	167.57375	1162.975	-1205.8214	338.89114	1157.2087	-1357.9686	227.75323	795.979	-1084.9858	233.24397	805.10175	-1343.2277	398.93048	861.91943	-1161.902	402.26868	858.94653	-1236.4343	185.65378	532.34814	-944.46399	148.97551	397.06909	-928.64026	237.74773	204.04831	-931.24323	299.4353	64.906067	-963.80737	322.81613	51.579605	-1024.3273	161.80136	38.254898	-936.42065	271.77539	682.63397	-1419.9728	171.27551	397.90335	-1482.937	201.07912	314.91299	-1492.0681	296.32129	73.129166	-1449.1926	322.81482	50.687252	-1381.1315	163.24927	40.52327	-1476.2767
559	2.79	309.78647	1235.4237	-1212.2708	167.78729	1159.924	-1206.0026	339.04688	1154.236	-1358.0326	228.58778	792.95874	-1084.8107	234.20293	802.2027	-1343.3134	399.85046	858.98193	-1161.9893	403.16565	856.00061	-1236.5144	184.97791	531.2644	-943.94446	147.12529	396.28036	-927.78009	236.88515	203.73396	-930.81934	299.35809	64.943008	-963.79578	322.81387	51.589912	-1024.3217	161.85054	38.277752	-936.47394	272.35736	680.74261	-1420.2626	169.42891	397.07269	-1483.9377	199.40883	314.24609	-1492.8466	296.20966	73.108978	-1449.2559	322.78137	50.718796	-1381.123	163.3318	40.538315	-1476.2323
560	2.795	309.90616	1232.3798	-1212.3794	168.06595	1156.6089	-1206.266	338.75449	1150.5651	-1357.5958	229.69507	789.79602	-1085.0312	235.05287	799.18561	-1343.3644	400.81381	855.90942	-1162.2386	404.07953	853.05835	-1236.6237	184.31	530.07452	-943.45569	145.31065	395.56158	-926.89978	235.97903	203.48547	-930.3573	299.27609	64.993004	-963.76959	322.81427	51.580147	-1024.3247	161.85884	38.2397	-936.49396	272.84644	679.09912	-1420.7653	167.65132	396.14594	-1484.9403	197.81703	313.54645	-1493.5964	296.08215	73.057686	-1449.2792	322.72839	50.69912	-1381.1427	163.37958	40.509636	-1476.1853
561	2.8	310.05267	1229.2418	-1212.4708	168.04655	1153.3223	-1206.0864	339.29187	1148.0095	-1358.1251	230.63484	786.68793	-1085.1414	236.00546	796.16888	-1343.4678	401.73401	852.9165	-1162.4698	405.03415	850.15863	-1236.7793	183.64627	528.9278	-942.97534	143.51221	394.73221	-926.05872	235.09891	203.17758	-929.97754	299.21417	65.027336	-963.77258	322.77182	51.564617	-1024.2812	161.84816	38.25705	-936.50134	273.42923	676.82477	-1420.7833	165.81754	395.18445	-1485.8837	196.18376	312.85718	-1494.3721	295.94006	73.038643	-1449.3008	322.66776	50.73394	-1381.1379	163.40714	40.52721	-1476.225
562	2.805	310.08154	1226.0127	-1212.4382	168.17215	1149.9325	-1206.1334	339.34515	1144.8915	-1358.1562	231.59476	783.38715	-1085.144	236.8089	793.12402	-1343.5198	402.63434	849.83447	-1162.4692	405.91556	846.95074	-1236.8969	183.07254	527.71222	-942.55194	141.6954	393.93631	-925.16449	234.1702	202.81639	-929.47351	299.12695	65.061783	-963.77051	322.74908	51.62458	-1024.2894	161.84407	38.270195	-936.50604	273.86407	675.18542	-1421.3734	164.01859	394.31247	-1486.8519	194.59009	312.21198	-1495.2184	295.80228	73.031212	-1449.3165	322.62204	50.812546	-1381.1147	163.42584	40.554611	-1476.1924
563	2.81	310.02521	1222.8069	-1212.3474	168.22977	1146.6884	-1206.0693	339.48303	1141.7795	-1358.1838	232.53914	780.13763	-1085.1971	237.69122	790.14081	-1343.6135	403.50955	846.68365	-1162.4777	406.74796	843.97076	-1236.95	182.94875	526.34924	-943.02924	139.95615	393.11514	-924.34271	233.332	202.45576	-929.15857	299.0065	65.092384	-963.78198	322.73395	51.726471	-1024.301	161.8185	38.327999	-936.50287	274.40933	672.83075	-1421.364	162.22923	393.48657	-1487.8192	193.05157	311.57703	-1496.0251	295.64969	73.046921	-1449.3367	322.5881	50.85268	-1381.0734	163.3976	40.62606	-1476.1766
564	2.815	310.16638	1219.5497	-1212.4473	168.26514	1143.2405	-1206.0303	339.57489	1138.5139	-1358.2137	233.52007	776.81671	-1085.3197	238.52773	786.96967	-1343.7275	404.4726	843.48297	-1162.7734	407.70547	841.02759	-1237.0271	181.8931	525.18066	-941.76062	138.18677	392.29111	-923.4726	232.35616	202.05898	-928.66138	298.89029	65.107742	-963.81189	322.69501	51.775818	-1024.3273	161.79398	38.373104	-936.53265	274.95505	670.76251	-1421.696	160.52765	392.52325	-1488.78	191.49628	310.83115	-1496.7795	295.34958	72.85067	-1449.2476	323.0162	51.036167	-1381.5734	163.44203	40.672161	-1476.2045
565	2.82	310.15097	1216.2482	-1212.3286	168.38139	1139.7614	-1206.0603	339.63574	1135.1864	-1358.1909	234.47736	773.47491	-1085.5292	239.47301	783.71356	-1343.8212	405.37756	840.20898	-1163.1234	408.67883	837.89923	-1237.1953	181.20946	523.90869	-941.34387	136.47977	391.48755	-922.61285	231.49693	201.65471	-928.39069	298.78223	65.088554	-963.84662	322.67276	51.744503	-1024.3792	161.80797	38.345924	-936.55469	275.44608	668.60657	-1422.1017	158.80002	391.52179	-1489.7106	190.0239	310.09338	-1497.5253	295.22647	72.792053	-1449.2778	322.93109	51.007889	-1381.6125	163.45895	40.675453	-1476.2333
